<svg xmlns="http://www.w3.org/2000/svg" xmlns:xlink="http://www.w3.org/1999/xlink" width="1120" zoomAndPan="magnify" viewBox="0 0 840 171.000002" height="228" preserveAspectRatio="xMidYMid meet" version="1.0"><defs><g/><clipPath id="131fbe94f9"><path d="M 2.441406 0 L 159.773438 0 L 159.773438 143.164062 L 2.441406 143.164062 Z M 2.441406 0 " clip-rule="nonzero"/></clipPath></defs><g clip-path="url(#131fbe94f9)"><path fill="#151e3b" d="M 68.09375 143.386719 L 68.09375 143.378906 L 71.414062 143.378906 L 71.414062 90.226562 C 71.414062 90.226562 70.859375 89.90625 70.859375 89.90625 L 61.425781 84.464844 L 70.859375 79.019531 L 71.414062 78.699219 L 71.414062 78.054688 C 71.414062 78.054688 71.414062 41.453125 71.414062 41.453125 L 135.929688 78.691406 L 135.929688 141.164062 L 115.914062 141.164062 L 115.914062 78.039062 L 113.691406 78.039062 L 113.691406 141.164062 L 97.566406 141.164062 L 97.566406 143.386719 L 148.167969 143.386719 L 148.167969 141.164062 L 138.152344 141.164062 L 138.152344 79.976562 L 158.746094 91.863281 L 159.859375 89.933594 L 138.152344 77.40625 L 138.152344 54.277344 L 149.367188 60.753906 L 150.476562 58.824219 L 138.152344 51.710938 L 138.152344 37.789062 L 135.929688 37.789062 L 135.929688 50.425781 L 48.609375 0 L 47.496094 1.929688 L 68.082031 13.8125 L 60.253906 18.320312 L 60.253906 18.296875 L 58.585938 19.257812 L 14.113281 44.933594 L 13.554688 45.253906 L 13.554688 45.277344 L 3 51.371094 L 2.441406 51.691406 L 2.441406 143.378906 L 14.484375 143.378906 L 14.484375 143.386719 L 68.097656 143.386719 Z M 36.925781 98.605469 L 46.9375 104.371094 L 46.9375 118.910156 L 26.914062 118.910156 L 26.914062 104.371094 Z M 36.925781 70.316406 C 36.925781 70.316406 36.371094 70.636719 36.371094 70.636719 L 26.914062 76.101562 L 26.914062 65.8125 L 46.9375 54.257812 L 46.9375 54.285156 C 46.9375 54.285156 46.9375 64.546875 46.9375 64.546875 Z M 135.925781 76.121094 L 71.433594 38.890625 L 71.414062 15.738281 L 135.925781 52.988281 Z M 135.925781 76.121094 " fill-opacity="1" fill-rule="nonzero"/></g><g fill="#0c0677" fill-opacity="1"><g transform="translate(180.845561, 123.201731)"><g><path d="M 38.601562 0 L 49.84375 0 L 31.40625 -52.464844 L 18.589844 -52.464844 L 0.226562 0 L 11.394531 0 L 14.539062 -9.445312 L 35.453125 -9.445312 Z M 17.839844 -19.113281 L 25.035156 -40.550781 L 32.230469 -19.113281 Z M 17.839844 -19.113281 "/></g></g></g><g fill="#0c0677" fill-opacity="1"><g transform="translate(230.911097, 123.201731)"><g><path d="M 4.871094 -52.464844 L 4.871094 0 L 15.214844 0 L 15.214844 -52.464844 Z M 4.871094 -52.464844 "/></g></g></g><g fill="#0c0677" fill-opacity="1"><g transform="translate(250.997273, 123.201731)"><g><path d="M 29.753906 1.050781 C 39.425781 1.050781 47.894531 -3.824219 52.316406 -11.316406 L 43.398438 -16.488281 C 40.921875 -11.917969 35.753906 -9.070312 29.753906 -9.070312 C 19.488281 -9.070312 12.742188 -16.191406 12.742188 -26.234375 C 12.742188 -36.351562 19.488281 -43.472656 29.753906 -43.472656 C 35.753906 -43.472656 40.847656 -40.625 43.398438 -35.976562 L 52.316406 -41.148438 C 47.820312 -48.644531 39.351562 -53.515625 29.753906 -53.515625 C 13.867188 -53.515625 2.472656 -41.597656 2.472656 -26.234375 C 2.472656 -10.941406 13.867188 1.050781 29.753906 1.050781 Z M 29.753906 1.050781 "/></g></g></g><g fill="#0c0677" fill-opacity="1"><g transform="translate(305.409821, 123.201731)"><g><path d="M 29.679688 1.050781 C 44.820312 1.050781 56.964844 -10.941406 56.964844 -26.234375 C 56.964844 -41.597656 44.820312 -53.515625 29.679688 -53.515625 C 14.539062 -53.515625 2.472656 -41.597656 2.472656 -26.234375 C 2.472656 -10.941406 14.539062 1.050781 29.679688 1.050781 Z M 29.679688 -9.070312 C 20.160156 -9.070312 12.742188 -16.191406 12.742188 -26.234375 C 12.742188 -36.351562 20.160156 -43.472656 29.679688 -43.472656 C 39.199219 -43.472656 46.621094 -36.351562 46.621094 -26.234375 C 46.621094 -16.191406 39.199219 -9.070312 29.679688 -9.070312 Z M 29.679688 -9.070312 "/></g></g></g><g fill="#0c0677" fill-opacity="1"><g transform="translate(364.768955, 123.201731)"><g><path d="M 35.226562 -52.464844 L 35.226562 -20.460938 L 12.742188 -52.464844 L 4.871094 -52.464844 L 4.871094 0 L 15.214844 0 L 15.214844 -32.078125 L 37.699219 0 L 45.570312 0 L 45.570312 -52.464844 Z M 35.226562 -52.464844 "/></g></g></g><g fill="#0c0677" fill-opacity="1"><g transform="translate(415.209244, 123.201731)"><g><path d="M 25.707031 -52.464844 L 4.871094 -52.464844 L 4.871094 0 L 25.707031 0 C 40.175781 0 50.96875 -11.46875 50.96875 -26.234375 C 50.96875 -41 40.175781 -52.464844 25.707031 -52.464844 Z M 25.707031 -9.894531 L 15.214844 -9.894531 L 15.214844 -42.574219 L 25.707031 -42.574219 C 34.777344 -42.574219 41.074219 -35.902344 41.074219 -26.234375 C 41.074219 -16.5625 34.777344 -9.894531 25.707031 -9.894531 Z M 25.707031 -9.894531 "/></g></g></g><g fill="#0c0677" fill-opacity="1"><g transform="translate(468.647441, 123.201731)"><g><path d="M 29.679688 1.050781 C 44.820312 1.050781 56.964844 -10.941406 56.964844 -26.234375 C 56.964844 -41.597656 44.820312 -53.515625 29.679688 -53.515625 C 14.539062 -53.515625 2.472656 -41.597656 2.472656 -26.234375 C 2.472656 -10.941406 14.539062 1.050781 29.679688 1.050781 Z M 29.679688 -9.070312 C 20.160156 -9.070312 12.742188 -16.191406 12.742188 -26.234375 C 12.742188 -36.351562 20.160156 -43.472656 29.679688 -43.472656 C 39.199219 -43.472656 46.621094 -36.351562 46.621094 -26.234375 C 46.621094 -16.191406 39.199219 -9.070312 29.679688 -9.070312 Z M 29.679688 -9.070312 "/></g></g></g><g fill="#0c0677" fill-opacity="1"><g transform="translate(528.006585, 123.201731)"><g><path d="M 56.214844 -52.464844 L 45.570312 -52.464844 L 30.582031 -27.65625 L 15.515625 -52.464844 L 4.871094 -52.464844 L 4.871094 0 L 15.214844 0 L 15.214844 -33.953125 L 29.980469 -9.667969 L 31.179688 -9.667969 L 45.945312 -34.027344 L 45.945312 0 L 56.214844 0 Z M 56.214844 -52.464844 "/></g></g></g><g fill="#0c0677" fill-opacity="1"><g transform="translate(589.089521, 123.201731)"><g><path d="M 4.871094 -52.464844 L 4.871094 0 L 15.214844 0 L 15.214844 -52.464844 Z M 4.871094 -52.464844 "/></g></g></g><g fill="#0c0677" fill-opacity="1"><g transform="translate(609.175686, 123.201731)"><g><path d="M 35.226562 -52.464844 L 35.226562 -20.460938 L 12.742188 -52.464844 L 4.871094 -52.464844 L 4.871094 0 L 15.214844 0 L 15.214844 -32.078125 L 37.699219 0 L 45.570312 0 L 45.570312 -52.464844 Z M 35.226562 -52.464844 "/></g></g></g><g fill="#0c0677" fill-opacity="1"><g transform="translate(659.615987, 123.201731)"><g><path d="M 4.871094 -52.464844 L 4.871094 0 L 15.214844 0 L 15.214844 -52.464844 Z M 4.871094 -52.464844 "/></g></g></g><g fill="#0c0677" fill-opacity="1"><g transform="translate(679.702152, 123.201731)"><g><path d="M 29.679688 1.050781 C 44.820312 1.050781 56.964844 -10.941406 56.964844 -26.234375 C 56.964844 -41.597656 44.820312 -53.515625 29.679688 -53.515625 C 14.539062 -53.515625 2.472656 -41.597656 2.472656 -26.234375 C 2.472656 -10.941406 14.539062 1.050781 29.679688 1.050781 Z M 29.679688 -9.070312 C 20.160156 -9.070312 12.742188 -16.191406 12.742188 -26.234375 C 12.742188 -36.351562 20.160156 -43.472656 29.679688 -43.472656 C 39.199219 -43.472656 46.621094 -36.351562 46.621094 -26.234375 C 46.621094 -16.191406 39.199219 -9.070312 29.679688 -9.070312 Z M 29.679688 -9.070312 "/></g></g></g><g fill="#0c0677" fill-opacity="1"><g transform="translate(739.061319, 123.201731)"><g><path d="M 10.042969 0.972656 C 13.566406 0.972656 16.414062 -1.875 16.414062 -5.398438 C 16.414062 -8.917969 13.566406 -11.765625 10.042969 -11.765625 C 6.519531 -11.765625 3.671875 -8.917969 3.671875 -5.398438 C 3.671875 -1.875 6.519531 0.972656 10.042969 0.972656 Z M 10.042969 0.972656 "/></g></g></g><g fill="#0c0677" fill-opacity="1"><g transform="translate(759.147484, 123.201731)"><g><path d="M 9.21875 -41.972656 C 12.515625 -41.972656 15.214844 -44.671875 15.214844 -47.894531 C 15.214844 -51.117188 12.515625 -53.890625 9.21875 -53.890625 C 5.996094 -53.890625 3.296875 -51.117188 3.296875 -47.894531 C 3.296875 -44.671875 5.996094 -41.972656 9.21875 -41.972656 Z M 4.421875 0 L 14.089844 0 L 14.089844 -37.476562 L 4.421875 -37.476562 Z M 4.421875 0 "/></g></g></g><g fill="#0c0677" fill-opacity="1"><g transform="translate(777.659723, 123.201731)"><g><path d="M 25.859375 -28.183594 L 25.859375 -37.476562 L 17.390625 -37.476562 L 17.390625 -47.96875 L 7.71875 -45.046875 L 7.71875 -37.476562 L 1.199219 -37.476562 L 1.199219 -28.183594 L 7.71875 -28.183594 L 7.71875 -12.59375 C 7.71875 -2.472656 12.292969 1.5 25.859375 0 L 25.859375 -8.769531 C 20.3125 -8.46875 17.390625 -8.542969 17.390625 -12.59375 L 17.390625 -28.183594 Z M 25.859375 -28.183594 "/></g></g></g></svg>