<svg xmlns="http://www.w3.org/2000/svg" xmlns:xlink="http://www.w3.org/1999/xlink" width="1309" zoomAndPan="magnify" viewBox="0 0 981.75 805.499971" height="1074" preserveAspectRatio="xMidYMid meet" version="1.0"><defs><g/><clipPath id="c970fd0b11"><path d="M 179.363281 0.632812 L 446 0.632812 L 446 516.832031 L 179.363281 516.832031 Z M 179.363281 0.632812 " clip-rule="nonzero"/></clipPath><clipPath id="3282dd091f"><path d="M 356 0.632812 L 624 0.632812 L 624 516.832031 L 356 516.832031 Z M 356 0.632812 " clip-rule="nonzero"/></clipPath><clipPath id="1736b4c6d4"><path d="M 534 0.632812 L 801.476562 0.632812 L 801.476562 516.832031 L 534 516.832031 Z M 534 0.632812 " clip-rule="nonzero"/></clipPath><clipPath id="14aae9cc3a"><path d="M 356 188 L 446 188 L 446 516.832031 L 356 516.832031 Z M 356 188 " clip-rule="nonzero"/></clipPath><clipPath id="991aae61dd"><path d="M 534 188 L 624 188 L 624 516.832031 L 534 516.832031 Z M 534 188 " clip-rule="nonzero"/></clipPath><clipPath id="74e9e85da3"><rect x="0" width="817" y="0" height="226"/></clipPath></defs><g clip-path="url(#c970fd0b11)"><path fill="#99ddf8" d="M 356.125 113.363281 L 357.285156 112.316406 L 358.40625 111.230469 L 359.492188 110.109375 L 361.585938 107.789062 L 362.59375 106.59375 L 363.527344 105.398438 L 364.5 104.164062 L 366.296875 101.621094 L 367.15625 100.3125 L 367.976562 99.003906 L 368.761719 97.65625 L 369.546875 96.273438 L 370.296875 94.890625 L 370.96875 93.507812 L 371.640625 92.085938 L 372.277344 90.628906 L 372.875 89.171875 L 373.4375 87.675781 L 373.960938 86.179688 L 374.445312 84.683594 L 374.894531 83.152344 L 375.304688 81.617188 L 375.71875 80.046875 L 376.054688 78.476562 L 376.351562 76.871094 L 376.613281 75.261719 L 376.839844 73.652344 L 377.027344 72.046875 L 377.175781 70.402344 L 377.289062 68.753906 L 377.324219 67.074219 C 377.363281 66.550781 377.363281 65.988281 377.363281 65.429688 L 377.324219 63.746094 L 377.289062 62.101562 L 377.175781 60.417969 L 377.027344 58.808594 L 376.839844 57.164062 L 376.613281 55.558594 L 376.351562 53.949219 L 376.054688 52.378906 L 375.71875 50.808594 L 375.304688 49.238281 L 374.894531 47.707031 L 374.445312 46.171875 L 373.960938 44.640625 L 373.4375 43.144531 L 372.875 41.6875 L 372.277344 40.226562 L 371.640625 38.769531 L 370.296875 35.929688 L 369.546875 34.542969 L 367.976562 31.851562 L 367.15625 30.507812 L 366.296875 29.199219 L 364.5 26.65625 L 363.527344 25.421875 L 362.59375 24.226562 L 361.585938 23.027344 L 360.539062 21.871094 L 359.492188 20.746094 L 358.40625 19.625 L 357.285156 18.542969 L 354.96875 16.449219 L 353.808594 15.4375 L 352.574219 14.464844 L 350.105469 12.597656 L 348.796875 11.699219 L 347.488281 10.839844 L 346.179688 10.015625 L 344.835938 9.230469 L 342.070312 7.734375 L 340.6875 7.027344 L 339.265625 6.390625 L 337.808594 5.753906 L 336.347656 5.15625 L 334.851562 4.59375 L 331.863281 3.546875 L 330.328125 3.101562 L 328.796875 2.6875 L 327.226562 2.316406 L 325.65625 1.976562 L 324.046875 1.679688 L 322.476562 1.378906 L 320.832031 1.15625 L 319.226562 0.96875 L 315.9375 0.746094 L 314.253906 0.667969 L 312.609375 0.632812 L 310.925781 0.667969 L 309.28125 0.746094 L 305.992188 0.96875 L 304.347656 1.15625 L 302.738281 1.378906 L 301.128906 1.679688 L 299.558594 1.976562 L 297.988281 2.316406 L 296.417969 2.6875 L 294.886719 3.101562 L 293.355469 3.546875 L 291.820312 4.070312 L 290.324219 4.59375 L 288.867188 5.15625 L 287.410156 5.753906 L 285.953125 6.390625 L 284.53125 7.027344 L 283.109375 7.734375 L 281.726562 8.484375 L 280.382812 9.230469 L 279.035156 10.015625 L 277.6875 10.839844 L 276.378906 11.699219 L 275.109375 12.597656 L 273.875 13.53125 L 272.605469 14.464844 L 271.410156 15.4375 L 270.210938 16.449219 L 269.054688 17.496094 L 267.929688 18.542969 L 266.808594 19.625 L 265.726562 20.746094 L 264.679688 21.871094 L 263.632812 23.027344 L 262.621094 24.226562 L 261.648438 25.421875 L 260.714844 26.65625 L 259.78125 27.925781 L 258.921875 29.199219 L 258.0625 30.507812 L 256.417969 33.199219 L 255.667969 34.542969 L 254.921875 35.929688 L 253.574219 38.769531 L 252.9375 40.226562 L 252.339844 41.6875 L 251.78125 43.144531 L 251.257812 44.640625 L 250.734375 46.171875 L 250.285156 47.707031 L 249.875 49.238281 L 249.5 50.808594 L 249.164062 52.378906 L 248.863281 53.949219 L 248.339844 57.164062 L 248.191406 58.808594 L 248.042969 60.417969 L 247.929688 62.101562 L 247.855469 63.746094 L 247.855469 67.074219 L 247.929688 68.753906 L 248.042969 70.402344 L 248.191406 72.046875 L 248.339844 73.652344 L 248.863281 76.871094 L 249.164062 78.476562 L 249.5 80.046875 L 249.875 81.617188 L 250.285156 83.152344 L 250.734375 84.683594 L 251.78125 87.675781 L 252.339844 89.171875 L 252.9375 90.628906 L 253.574219 92.085938 L 254.246094 93.507812 L 254.921875 94.890625 L 256.417969 97.65625 L 257.238281 99.003906 L 258.0625 100.3125 L 258.921875 101.621094 L 259.78125 102.890625 L 260.714844 104.164062 L 261.648438 105.398438 L 262.621094 106.59375 L 263.632812 107.789062 L 265.726562 110.109375 L 266.808594 111.230469 L 267.929688 112.316406 L 269.054688 113.363281 L 270.210938 114.371094 L 271.410156 115.378906 L 272.605469 116.351562 L 273.875 117.324219 L 275.109375 118.222656 L 276.378906 119.121094 L 277.6875 119.980469 L 279.035156 120.800781 L 281.726562 122.371094 L 283.109375 123.082031 L 284.53125 123.792969 L 285.953125 124.464844 L 287.410156 125.101562 L 288.867188 125.699219 L 290.324219 126.261719 L 291.820312 126.785156 L 293.355469 127.269531 L 294.886719 127.71875 L 296.417969 128.128906 L 297.988281 128.542969 L 299.558594 128.878906 L 301.128906 129.175781 L 302.738281 129.4375 L 304.347656 129.664062 L 305.992188 129.851562 L 307.636719 130 L 309.28125 130.113281 L 310.925781 130.148438 L 312.609375 130.1875 L 314.253906 130.148438 L 315.9375 130.113281 L 317.582031 130 L 319.226562 129.851562 L 320.832031 129.664062 L 322.476562 129.4375 L 324.046875 129.175781 L 325.65625 128.878906 L 327.226562 128.542969 L 328.796875 128.128906 L 330.328125 127.71875 L 331.863281 127.269531 L 333.359375 126.785156 L 334.851562 126.261719 L 336.347656 125.699219 L 337.808594 125.101562 L 339.265625 124.464844 L 340.6875 123.792969 L 343.453125 122.371094 L 344.835938 121.585938 L 346.179688 120.800781 L 347.488281 119.980469 L 348.796875 119.121094 L 350.105469 118.222656 L 351.339844 117.324219 L 353.808594 115.378906 Z M 372.949219 516.757812 Z M 373.398438 516.792969 Z M 373.808594 516.792969 Z M 428.957031 516.792969 Z M 429.367188 516.792969 Z M 429.816406 516.757812 Z M 195.363281 516.757812 Z M 195.773438 516.792969 Z M 196.1875 516.792969 Z M 251.367188 516.792969 Z M 251.78125 516.792969 Z M 252.191406 516.757812 Z M 268.191406 450.054688 L 268.191406 501.015625 C 267.257812 509.203125 260.789062 515.746094 252.601562 516.71875 L 251.78125 516.792969 L 251.367188 516.792969 L 250.921875 516.832031 L 196.636719 516.832031 L 196.1875 516.792969 L 195.773438 516.792969 L 194.953125 516.71875 C 186.765625 515.746094 180.296875 509.203125 179.398438 501.015625 L 179.398438 450.054688 L 179.363281 449.902344 L 179.363281 288.042969 C 179.363281 248.597656 196.523438 213.152344 223.777344 188.777344 C 244.789062 169.96875 271.746094 157.742188 301.542969 155.273438 C 302.027344 155.238281 302.550781 155.199219 303.074219 155.164062 C 303.597656 155.125 304.121094 155.089844 304.644531 155.050781 L 304.683594 155.050781 C 305.207031 155.011719 305.730469 154.976562 306.253906 154.976562 C 306.777344 154.9375 307.300781 154.9375 307.824219 154.902344 C 308.347656 154.902344 308.871094 154.863281 309.429688 154.863281 C 309.953125 154.828125 310.476562 154.828125 311 154.828125 C 311.523438 154.828125 312.046875 154.828125 312.609375 154.828125 C 313.132812 154.828125 313.65625 154.828125 314.214844 154.828125 C 314.738281 154.828125 315.261719 154.828125 315.785156 154.863281 C 316.308594 154.863281 316.832031 154.902344 317.355469 154.902344 L 317.394531 154.902344 C 317.917969 154.9375 318.441406 154.9375 318.964844 154.976562 C 319.488281 154.976562 320.011719 155.011719 320.535156 155.050781 C 321.058594 155.089844 321.582031 155.125 322.105469 155.164062 C 352.5 157.292969 380.054688 169.632812 401.4375 188.777344 C 428.695312 213.152344 445.855469 248.597656 445.855469 288.042969 L 445.855469 390.304688 L 445.78125 390.304688 L 445.78125 501.015625 C 444.882812 509.203125 438.414062 515.746094 430.226562 516.71875 L 429.816406 516.757812 L 429.367188 516.792969 L 428.957031 516.792969 L 428.542969 516.832031 L 374.222656 516.832031 L 373.808594 516.792969 L 373.398438 516.792969 L 372.949219 516.757812 L 372.539062 516.71875 C 364.351562 515.746094 357.882812 509.203125 356.984375 501.015625 L 356.984375 288.042969 C 356.984375 265.425781 340.085938 246.765625 318.253906 244 C 317.878906 243.960938 317.507812 243.886719 317.132812 243.851562 C 316.757812 243.8125 316.382812 243.8125 316.011719 243.777344 C 315.636719 243.738281 315.261719 243.699219 314.890625 243.699219 C 314.515625 243.664062 314.140625 243.664062 313.730469 243.664062 C 313.355469 243.625 312.980469 243.625 312.609375 243.625 C 312.234375 243.625 311.824219 243.625 311.449219 243.664062 C 311.074219 243.664062 310.703125 243.664062 310.328125 243.699219 C 309.953125 243.699219 309.542969 243.738281 309.207031 243.777344 L 309.167969 243.777344 C 308.792969 243.8125 308.421875 243.8125 308.085938 243.851562 L 308.046875 243.851562 C 307.671875 243.886719 307.300781 243.960938 306.964844 244 C 285.089844 246.765625 268.230469 265.425781 268.230469 288.042969 L 268.230469 390.304688 L 268.191406 390.304688 L 268.191406 450.054688 " fill-opacity="1" fill-rule="evenodd"/></g><g clip-path="url(#3282dd091f)"><path fill="#51aee5" d="M 533.75 113.363281 L 534.871094 112.316406 L 535.992188 111.230469 L 537.078125 110.109375 L 539.171875 107.789062 L 540.179688 106.59375 L 541.152344 105.398438 L 542.085938 104.164062 L 543.023438 102.890625 L 543.917969 101.621094 L 544.78125 100.3125 L 545.601562 99.003906 L 546.386719 97.65625 L 547.882812 94.890625 L 548.59375 93.507812 L 549.265625 92.085938 L 550.460938 89.171875 L 551.582031 86.179688 L 552.070312 84.683594 L 552.519531 83.152344 L 552.929688 81.617188 L 553.304688 80.046875 L 553.640625 78.476562 L 553.976562 76.871094 L 554.238281 75.261719 L 554.460938 73.652344 L 554.648438 72.046875 L 554.875 68.753906 L 554.949219 67.074219 C 554.949219 66.550781 554.949219 65.988281 554.949219 65.429688 L 554.949219 63.746094 L 554.875 62.101562 L 554.761719 60.417969 L 554.648438 58.808594 L 554.460938 57.164062 L 554.238281 55.558594 L 553.976562 53.949219 L 553.304688 50.808594 L 552.929688 49.238281 L 552.519531 47.707031 L 552.070312 46.171875 L 551.582031 44.640625 L 551.023438 43.144531 L 550.460938 41.6875 L 549.265625 38.769531 L 548.59375 37.347656 L 547.882812 35.929688 L 547.132812 34.542969 L 546.386719 33.199219 L 545.601562 31.851562 L 544.78125 30.507812 L 543.917969 29.199219 L 543.023438 27.925781 L 542.085938 26.65625 L 541.152344 25.421875 L 540.179688 24.226562 L 539.171875 23.027344 L 538.125 21.871094 L 537.078125 20.746094 L 535.992188 19.625 L 534.871094 18.542969 L 533.75 17.496094 L 532.589844 16.449219 L 531.394531 15.4375 L 530.199219 14.464844 L 528.964844 13.53125 L 527.695312 12.597656 L 526.421875 11.699219 L 525.113281 10.839844 L 523.769531 10.015625 L 522.421875 9.230469 L 521.078125 8.484375 L 519.691406 7.734375 L 518.273438 7.027344 L 516.851562 6.390625 L 515.394531 5.753906 L 513.933594 5.15625 L 512.476562 4.59375 L 510.980469 4.070312 L 509.449219 3.546875 L 507.953125 3.101562 L 506.382812 2.6875 L 504.851562 2.316406 L 503.242188 1.976562 L 501.671875 1.679688 L 500.066406 1.378906 L 498.457031 1.15625 L 496.8125 0.96875 L 495.203125 0.855469 L 495.167969 0.855469 L 493.558594 0.746094 L 493.523438 0.746094 L 491.878906 0.667969 L 490.195312 0.632812 L 488.550781 0.667969 L 486.867188 0.746094 L 483.578125 0.96875 L 481.96875 1.15625 L 480.363281 1.378906 L 477.148438 1.976562 L 475.578125 2.316406 L 474.007812 2.6875 L 472.472656 3.101562 L 470.941406 3.546875 L 467.949219 4.59375 L 466.453125 5.15625 L 464.996094 5.753906 L 463.574219 6.390625 L 462.117188 7.027344 L 460.734375 7.734375 L 457.96875 9.230469 L 456.621094 10.015625 L 455.3125 10.839844 L 454.003906 11.699219 L 452.734375 12.597656 L 451.460938 13.53125 L 450.230469 14.464844 L 448.996094 15.4375 L 447.835938 16.449219 L 445.519531 18.542969 L 444.433594 19.625 L 442.265625 21.871094 L 441.253906 23.027344 L 440.246094 24.226562 L 439.273438 25.421875 L 438.300781 26.65625 L 436.507812 29.199219 L 435.648438 30.507812 L 434.824219 31.851562 L 433.253906 34.542969 L 432.542969 35.929688 L 431.835938 37.347656 L 431.160156 38.769531 L 430.527344 40.226562 L 429.925781 41.6875 L 429.367188 43.144531 L 428.84375 44.640625 L 428.355469 46.171875 L 427.910156 47.707031 L 427.496094 49.238281 L 426.75 52.378906 L 426.449219 53.949219 L 426.1875 55.558594 L 425.964844 57.164062 L 425.777344 58.808594 L 425.628906 60.417969 L 425.515625 62.101562 L 425.480469 63.746094 L 425.441406 65.429688 L 425.480469 67.074219 L 425.515625 68.753906 L 425.628906 70.402344 L 425.777344 72.046875 L 425.964844 73.652344 L 426.1875 75.261719 L 426.449219 76.871094 L 426.75 78.476562 L 427.496094 81.617188 L 427.910156 83.152344 L 428.355469 84.683594 L 428.84375 86.179688 L 429.367188 87.675781 L 429.925781 89.171875 L 430.527344 90.628906 L 431.160156 92.085938 L 431.835938 93.507812 L 433.253906 96.273438 L 434.039062 97.65625 L 434.824219 99.003906 L 435.648438 100.3125 L 436.507812 101.621094 L 438.300781 104.164062 L 439.273438 105.398438 L 440.246094 106.59375 L 441.253906 107.789062 L 442.265625 108.949219 L 443.347656 110.109375 L 444.433594 111.230469 L 445.519531 112.316406 L 446.675781 113.363281 L 448.996094 115.378906 L 451.460938 117.324219 L 454.003906 119.121094 L 455.3125 119.980469 L 456.621094 120.800781 L 457.96875 121.585938 L 459.351562 122.371094 L 462.117188 123.792969 L 463.574219 124.464844 L 464.996094 125.101562 L 466.453125 125.699219 L 467.949219 126.261719 L 469.445312 126.785156 L 470.941406 127.269531 L 472.472656 127.71875 L 474.007812 128.128906 L 475.578125 128.542969 L 477.148438 128.878906 L 478.753906 129.175781 L 480.363281 129.4375 L 481.96875 129.664062 L 483.578125 129.851562 L 485.222656 130 L 486.867188 130.113281 L 488.550781 130.148438 L 490.195312 130.1875 L 491.878906 130.148438 L 493.523438 130.113281 L 495.167969 130 L 495.203125 130 L 496.8125 129.851562 L 498.457031 129.664062 L 500.066406 129.4375 L 501.671875 129.175781 L 503.242188 128.878906 L 504.851562 128.542969 L 506.382812 128.128906 L 507.953125 127.71875 L 509.449219 127.269531 L 510.980469 126.785156 L 512.476562 126.261719 L 513.933594 125.699219 L 515.394531 125.101562 L 516.851562 124.464844 L 518.273438 123.792969 L 519.691406 123.082031 L 521.078125 122.371094 L 523.769531 120.800781 L 525.113281 119.980469 L 526.421875 119.121094 L 528.964844 117.324219 L 530.199219 116.351562 L 531.394531 115.378906 L 532.589844 114.371094 Z M 550.574219 516.757812 Z M 550.984375 516.792969 Z M 551.398438 516.792969 Z M 606.578125 516.792969 Z M 606.992188 516.792969 Z M 607.402344 516.757812 Z M 372.949219 516.757812 Z M 373.398438 516.792969 Z M 373.808594 516.792969 Z M 428.957031 516.792969 Z M 429.367188 516.792969 Z M 429.816406 516.757812 Z M 445.78125 450.054688 L 445.78125 501.015625 C 444.882812 509.203125 438.414062 515.746094 430.226562 516.71875 L 429.816406 516.757812 L 429.367188 516.792969 L 428.957031 516.792969 L 428.542969 516.832031 L 374.222656 516.832031 L 373.808594 516.792969 L 373.398438 516.792969 L 372.949219 516.757812 L 372.539062 516.71875 C 364.351562 515.746094 357.882812 509.203125 356.984375 501.015625 L 356.984375 450.054688 L 356.949219 449.902344 L 356.949219 288.042969 C 356.984375 248.597656 374.109375 213.152344 401.363281 188.777344 L 401.402344 188.777344 C 422.375 169.96875 449.367188 157.742188 479.128906 155.273438 C 479.652344 155.238281 480.175781 155.199219 480.699219 155.164062 C 481.222656 155.125 481.746094 155.089844 482.269531 155.050781 C 482.792969 155.011719 483.316406 154.976562 483.839844 154.976562 C 484.363281 154.9375 484.886719 154.9375 485.410156 154.902344 C 485.96875 154.902344 486.492188 154.863281 487.015625 154.863281 C 487.539062 154.828125 488.0625 154.828125 488.585938 154.828125 L 488.625 154.828125 C 489.148438 154.828125 489.671875 154.828125 490.195312 154.828125 C 490.71875 154.828125 491.277344 154.828125 491.800781 154.828125 C 492.324219 154.828125 492.847656 154.828125 493.410156 154.863281 C 493.933594 154.863281 494.457031 154.902344 494.980469 154.902344 C 495.503906 154.9375 496.027344 154.9375 496.550781 154.976562 L 496.589844 154.976562 C 497.113281 154.976562 497.636719 155.011719 498.121094 155.050781 L 498.160156 155.050781 C 498.679688 155.089844 499.203125 155.125 499.726562 155.164062 C 530.085938 157.292969 557.679688 169.632812 579.027344 188.777344 C 606.28125 213.152344 623.441406 248.597656 623.441406 288.042969 L 623.441406 390.304688 L 623.367188 390.304688 L 623.367188 501.015625 C 622.46875 509.203125 616 515.746094 607.8125 516.71875 L 606.992188 516.792969 L 606.578125 516.792969 L 606.128906 516.832031 L 551.84375 516.832031 L 551.398438 516.792969 L 550.984375 516.792969 L 550.164062 516.71875 C 541.976562 515.746094 535.507812 509.203125 534.574219 501.015625 L 534.574219 288.042969 C 534.574219 265.425781 517.710938 246.765625 495.878906 244 L 495.839844 244 C 495.503906 243.960938 495.128906 243.886719 494.757812 243.851562 C 494.382812 243.8125 494.007812 243.8125 493.632812 243.777344 C 493.222656 243.738281 492.886719 243.699219 492.476562 243.699219 C 492.101562 243.664062 491.726562 243.664062 491.355469 243.664062 C 490.980469 243.625 490.605469 243.625 490.195312 243.625 C 489.820312 243.625 489.445312 243.625 489.074219 243.664062 C 488.660156 243.664062 488.289062 243.664062 487.914062 243.699219 C 487.539062 243.699219 487.167969 243.738281 486.792969 243.777344 C 486.417969 243.8125 486.046875 243.8125 485.671875 243.851562 C 485.296875 243.886719 484.921875 243.960938 484.550781 244 C 462.714844 246.765625 445.816406 265.425781 445.816406 288.042969 L 445.816406 449.902344 L 445.78125 450.054688 " fill-opacity="1" fill-rule="evenodd"/></g><g clip-path="url(#1736b4c6d4)"><path fill="#2e3591" d="M 711.785156 113.363281 L 712.90625 112.316406 L 714.027344 111.230469 L 715.113281 110.109375 L 716.160156 108.988281 L 717.207031 107.789062 L 718.214844 106.632812 L 719.1875 105.398438 L 721.058594 102.929688 L 721.953125 101.621094 L 722.816406 100.3125 L 723.636719 99.003906 L 724.421875 97.65625 L 725.917969 94.890625 L 726.628906 93.507812 L 727.261719 92.085938 L 727.898438 90.628906 L 728.496094 89.171875 L 729.058594 87.675781 L 729.582031 86.179688 L 730.066406 84.683594 L 730.554688 83.152344 L 730.964844 81.617188 L 731.339844 80.046875 L 731.675781 78.476562 L 731.972656 76.871094 L 732.273438 75.300781 L 732.460938 73.652344 L 732.648438 72.046875 L 732.796875 70.402344 L 732.910156 68.753906 L 732.984375 67.109375 C 732.984375 66.550781 732.984375 65.988281 732.984375 65.429688 L 732.984375 63.746094 L 732.910156 62.101562 L 732.796875 60.457031 L 732.648438 58.808594 L 732.460938 57.164062 L 732.273438 55.558594 L 731.972656 53.949219 L 731.675781 52.378906 L 731.339844 50.808594 L 730.964844 49.238281 L 730.554688 47.707031 L 729.582031 44.640625 L 729.058594 43.144531 L 728.496094 41.6875 L 727.898438 40.226562 L 727.261719 38.769531 L 726.628906 37.347656 L 725.917969 35.929688 L 725.171875 34.542969 L 724.421875 33.199219 L 723.636719 31.851562 L 722.816406 30.507812 L 721.953125 29.199219 L 721.058594 27.925781 L 719.1875 25.457031 L 718.214844 24.226562 L 717.207031 23.027344 L 716.160156 21.871094 L 715.113281 20.746094 L 714.027344 19.625 L 712.90625 18.542969 L 711.785156 17.496094 L 710.625 16.449219 L 709.429688 15.4375 L 708.234375 14.464844 L 707 13.53125 L 705.730469 12.597656 L 704.457031 11.738281 L 703.148438 10.875 L 701.804688 10.015625 L 700.457031 9.230469 L 699.113281 8.484375 L 697.726562 7.734375 L 696.308594 7.027344 L 694.886719 6.390625 L 693.429688 5.753906 L 691.96875 5.15625 L 690.511719 4.59375 L 689.015625 4.070312 L 685.953125 3.101562 L 684.417969 2.6875 L 682.847656 2.316406 L 681.277344 1.976562 L 679.707031 1.679688 L 678.101562 1.417969 L 676.492188 1.191406 L 674.847656 1.007812 L 673.203125 0.855469 L 671.558594 0.746094 L 669.914062 0.667969 L 666.585938 0.667969 L 664.902344 0.746094 L 663.257812 0.855469 L 661.613281 1.007812 L 660.003906 1.191406 L 658.359375 1.417969 L 656.789062 1.679688 L 655.183594 1.976562 L 653.613281 2.316406 L 652.042969 2.6875 L 650.507812 3.101562 L 648.976562 3.585938 L 647.480469 4.070312 L 645.984375 4.59375 L 644.488281 5.15625 L 643.03125 5.753906 L 641.574219 6.390625 L 640.152344 7.027344 L 638.769531 7.734375 L 636.003906 9.230469 L 634.65625 10.015625 L 632.039062 11.738281 L 630.769531 12.597656 L 629.496094 13.53125 L 628.265625 14.464844 L 627.03125 15.4375 L 625.871094 16.449219 L 623.554688 18.542969 L 622.429688 19.625 L 621.347656 20.746094 L 620.300781 21.871094 L 619.289062 23.027344 L 618.28125 24.226562 L 616.335938 26.691406 L 615.441406 27.925781 L 614.542969 29.199219 L 613.683594 30.507812 L 612.859375 31.851562 L 611.289062 34.542969 L 610.542969 35.929688 L 609.195312 38.769531 L 608.5625 40.226562 L 607.960938 41.6875 L 607.402344 43.144531 L 606.878906 44.640625 L 606.390625 46.171875 L 605.945312 47.707031 L 605.53125 49.238281 L 605.121094 50.808594 L 604.785156 52.378906 L 604.484375 53.949219 L 604.222656 55.558594 L 604 57.164062 L 603.8125 58.808594 L 603.664062 60.457031 L 603.550781 62.101562 L 603.515625 63.746094 L 603.476562 65.429688 L 603.515625 67.109375 L 603.550781 68.753906 L 603.664062 70.402344 L 603.8125 72.046875 L 604 73.652344 L 604.222656 75.300781 L 604.484375 76.871094 L 604.785156 78.476562 L 605.121094 80.046875 L 605.53125 81.617188 L 605.945312 83.152344 L 606.390625 84.683594 L 606.878906 86.179688 L 607.402344 87.675781 L 607.960938 89.171875 L 608.5625 90.628906 L 609.195312 92.085938 L 609.871094 93.507812 L 610.542969 94.890625 L 611.289062 96.273438 L 612.074219 97.65625 L 612.859375 99.003906 L 613.683594 100.3125 L 614.542969 101.621094 L 615.441406 102.929688 L 616.335938 104.164062 L 618.28125 106.632812 L 619.289062 107.789062 L 620.300781 108.988281 L 621.347656 110.109375 L 622.429688 111.230469 L 623.554688 112.316406 L 625.871094 114.410156 L 627.03125 115.378906 L 628.265625 116.390625 L 629.496094 117.324219 L 632.039062 119.121094 L 633.347656 119.980469 L 634.65625 120.800781 L 636.003906 121.625 L 638.769531 123.121094 L 640.152344 123.792969 L 641.574219 124.464844 L 643.03125 125.101562 L 644.488281 125.699219 L 645.984375 126.261719 L 647.480469 126.785156 L 648.976562 127.269531 L 652.042969 128.167969 L 653.613281 128.542969 L 655.183594 128.878906 L 656.789062 129.175781 L 658.359375 129.4375 L 660.003906 129.664062 L 661.613281 129.851562 L 663.257812 130 L 664.902344 130.113281 L 666.585938 130.148438 L 668.230469 130.1875 L 669.914062 130.148438 L 671.558594 130.113281 L 673.203125 130 L 674.847656 129.851562 L 676.492188 129.664062 L 678.101562 129.4375 L 679.707031 129.175781 L 681.277344 128.878906 L 682.847656 128.542969 L 684.417969 128.167969 L 687.484375 127.269531 L 689.015625 126.785156 L 690.511719 126.261719 L 691.96875 125.699219 L 693.429688 125.101562 L 694.886719 124.464844 L 697.726562 123.121094 L 699.113281 122.371094 L 700.457031 121.625 L 703.148438 119.980469 L 704.457031 119.121094 L 707 117.324219 L 708.234375 116.390625 L 709.429688 115.378906 L 710.625 114.410156 Z M 728.609375 516.757812 Z M 729.019531 516.792969 Z M 729.433594 516.792969 Z M 784.613281 516.792969 Z M 785.027344 516.792969 Z M 785.4375 516.757812 Z M 550.984375 516.757812 Z M 551.398438 516.792969 Z M 551.84375 516.792969 Z M 606.992188 516.792969 Z M 607.402344 516.792969 Z M 607.851562 516.757812 Z M 623.816406 450.054688 L 623.816406 501.015625 C 622.917969 509.242188 616.414062 515.746094 608.261719 516.71875 L 607.851562 516.757812 L 607.402344 516.792969 L 606.992188 516.792969 L 606.578125 516.832031 L 552.257812 516.832031 L 551.84375 516.792969 L 551.398438 516.792969 L 550.574219 516.71875 C 542.386719 515.746094 535.917969 509.242188 535.019531 501.015625 L 535.019531 450.054688 L 534.984375 449.902344 L 534.984375 288.082031 C 534.984375 248.636719 552.144531 213.152344 579.398438 188.777344 C 600.410156 169.96875 627.402344 157.742188 657.164062 155.273438 C 657.6875 155.238281 658.210938 155.199219 658.734375 155.164062 C 659.257812 155.125 659.78125 155.089844 660.304688 155.050781 C 660.828125 155.011719 661.351562 155.011719 661.875 154.976562 C 662.398438 154.9375 662.921875 154.9375 663.445312 154.902344 C 664.003906 154.902344 664.527344 154.863281 665.050781 154.863281 C 665.574219 154.863281 666.097656 154.828125 666.621094 154.828125 C 667.183594 154.828125 667.707031 154.828125 668.230469 154.828125 C 668.789062 154.828125 669.3125 154.828125 669.835938 154.828125 C 670.359375 154.828125 670.882812 154.863281 671.40625 154.863281 C 671.96875 154.863281 672.492188 154.902344 673.015625 154.902344 C 673.539062 154.9375 674.0625 154.9375 674.585938 154.976562 C 675.109375 155.011719 675.632812 155.011719 676.15625 155.050781 L 676.195312 155.050781 C 676.71875 155.089844 677.242188 155.125 677.761719 155.164062 C 708.121094 157.292969 735.714844 169.632812 757.0625 188.777344 C 784.316406 213.152344 801.476562 248.636719 801.476562 288.082031 L 801.476562 390.34375 L 801.402344 390.34375 L 801.402344 501.015625 C 800.503906 509.242188 794.035156 515.746094 785.847656 516.71875 L 785.027344 516.792969 L 784.613281 516.792969 L 784.167969 516.832031 L 729.878906 516.832031 L 729.433594 516.792969 L 729.019531 516.792969 L 728.199219 516.71875 C 720.011719 515.746094 713.503906 509.242188 712.609375 501.015625 L 712.609375 288.042969 C 712.609375 265.460938 695.746094 246.765625 673.875 244 C 673.539062 243.960938 673.164062 243.925781 672.792969 243.886719 L 672.753906 243.886719 C 672.417969 243.851562 672.042969 243.8125 671.632812 243.777344 C 671.296875 243.738281 670.882812 243.738281 670.511719 243.699219 C 670.136719 243.699219 669.761719 243.664062 669.390625 243.664062 C 669.015625 243.664062 668.605469 243.625 668.230469 243.625 C 667.855469 243.625 667.480469 243.664062 667.109375 243.664062 C 666.695312 243.664062 666.324219 243.699219 665.949219 243.699219 C 665.574219 243.738281 665.203125 243.738281 664.828125 243.777344 C 664.453125 243.8125 664.082031 243.851562 663.707031 243.886719 C 663.332031 243.925781 662.957031 243.960938 662.585938 244 C 640.75 246.765625 623.851562 265.460938 623.851562 288.042969 L 623.851562 390.34375 L 623.816406 390.34375 L 623.816406 450.054688 " fill-opacity="1" fill-rule="evenodd"/></g><g clip-path="url(#14aae9cc3a)"><path fill="#66cbea" d="M 445.816406 390.304688 L 445.816406 288.042969 C 445.816406 287.671875 445.816406 287.257812 445.855469 286.886719 C 445.480469 247.886719 428.394531 212.929688 401.4375 188.777344 C 401.4375 188.777344 401.402344 188.777344 401.402344 188.738281 C 401.402344 188.777344 401.402344 188.777344 401.402344 188.777344 L 401.363281 188.777344 C 374.410156 212.929688 357.324219 247.886719 356.984375 286.886719 C 356.984375 287.257812 356.984375 287.671875 356.984375 288.042969 L 356.984375 501.015625 C 357.882812 509.203125 364.351562 515.746094 372.539062 516.71875 L 372.949219 516.757812 L 373.398438 516.792969 L 373.808594 516.792969 L 374.222656 516.832031 L 428.542969 516.832031 L 428.957031 516.792969 L 429.367188 516.792969 L 429.816406 516.757812 L 430.226562 516.71875 C 438.414062 515.746094 444.882812 509.203125 445.78125 501.015625 L 445.78125 390.304688 L 445.816406 390.304688 " fill-opacity="1" fill-rule="evenodd"/></g><g clip-path="url(#991aae61dd)"><path fill="#4493d6" d="M 534.984375 288.082031 L 534.984375 449.902344 L 535.019531 450.054688 L 535.019531 501.015625 C 535.917969 509.242188 542.386719 515.746094 550.574219 516.71875 L 551.398438 516.792969 L 551.84375 516.792969 L 552.257812 516.832031 L 606.128906 516.832031 L 606.578125 516.792969 L 606.992188 516.792969 L 607.8125 516.71875 C 616 515.746094 622.46875 509.203125 623.367188 501.015625 L 623.367188 390.304688 L 623.441406 390.304688 L 623.441406 288.042969 C 623.441406 248.710938 606.355469 213.339844 579.210938 188.925781 C 552.070312 213.339844 534.984375 248.710938 534.984375 288.082031 " fill-opacity="1" fill-rule="evenodd"/></g><g transform="matrix(1, 0, 0, 1, 81, 542)"><g clip-path="url(#74e9e85da3)"><g fill="#2e3591" fill-opacity="1"><g transform="translate(2.743707, 159.152919)"><g><path d="M 53.078125 -45.578125 C 51.316406 -45.460938 49.4375 -45.40625 47.4375 -45.40625 C 45.4375 -45.40625 42.46875 -45.550781 38.53125 -45.84375 L 38.53125 0 L 15.171875 0 L 15.171875 -117.875 C 23.390625 -118.9375 33.5 -119.46875 45.5 -119.46875 C 61.832031 -119.46875 74.007812 -116.453125 82.03125 -110.421875 C 90.0625 -104.398438 94.078125 -95.097656 94.078125 -82.515625 C 94.078125 -72.765625 90.398438 -64.421875 83.046875 -57.484375 C 80.640625 -55.253906 77.878906 -53.316406 74.765625 -51.671875 L 92.75 -13.75 C 96.28125 -5.9375 98.984375 -1.296875 100.859375 0.171875 L 100.421875 0.609375 C 94.722656 -0.328125 85.757812 -0.296875 73.53125 0.703125 Z M 47.171875 -98.65625 C 44.171875 -98.65625 41.289062 -98.507812 38.53125 -98.21875 L 38.53125 -64.53125 C 41.40625 -64.125 44.78125 -63.921875 48.65625 -63.921875 C 52.539062 -63.921875 55.804688 -64.257812 58.453125 -64.9375 C 61.097656 -65.613281 63.390625 -66.65625 65.328125 -68.0625 C 69.503906 -71.175781 71.59375 -75.847656 71.59375 -82.078125 C 71.59375 -88.304688 69.414062 -92.6875 65.0625 -95.21875 C 61.007812 -97.507812 55.046875 -98.65625 47.171875 -98.65625 Z M 47.171875 -98.65625 "/></g></g></g><g fill="#2e3591" fill-opacity="1"><g transform="translate(107.901771, 159.152919)"><g><path d="M 8.546875 -45.3125 C 8.546875 -52.1875 9.722656 -58.5625 12.078125 -64.4375 C 14.429688 -70.320312 17.753906 -75.46875 22.046875 -79.875 C 31.210938 -89.21875 43.203125 -93.890625 58.015625 -93.890625 C 70.535156 -93.890625 80.585938 -89.75 88.171875 -81.46875 C 95.628906 -73.46875 99.359375 -63.414062 99.359375 -51.3125 C 99.359375 -46.664062 99.003906 -43.492188 98.296875 -41.796875 C 92.421875 -40.148438 80.460938 -39.328125 62.421875 -39.328125 L 31.390625 -39.328125 C 32.910156 -33.035156 36.460938 -28.140625 42.046875 -24.640625 C 47.640625 -21.140625 54.898438 -19.390625 63.828125 -19.390625 C 73.171875 -19.390625 81.195312 -21.066406 87.90625 -24.421875 C 89.664062 -25.304688 90.988281 -26.128906 91.875 -26.890625 C 91.75 -24.421875 91.597656 -21.894531 91.421875 -19.3125 L 90.453125 -5.546875 C 85.984375 -2.492188 78.753906 -0.378906 68.765625 0.796875 C 65.828125 1.148438 63.007812 1.328125 60.3125 1.328125 C 45.375 1.328125 33.03125 -3.019531 23.28125 -11.71875 C 13.457031 -20.476562 8.546875 -31.675781 8.546875 -45.3125 Z M 75.90625 -56.421875 C 73.5 -69.054688 66.625 -75.375 55.28125 -75.375 C 46.34375 -75.375 39.550781 -71.523438 34.90625 -63.828125 C 33.5 -61.484375 32.414062 -58.898438 31.65625 -56.078125 C 33.0625 -56.015625 34.796875 -55.953125 36.859375 -55.890625 L 43.375 -55.890625 C 45.550781 -55.835938 47.640625 -55.8125 49.640625 -55.8125 L 54.65625 -55.8125 C 57.65625 -55.8125 60.597656 -55.835938 63.484375 -55.890625 L 70.703125 -56.15625 C 72.648438 -56.21875 74.382812 -56.304688 75.90625 -56.421875 Z M 75.90625 -56.421875 "/></g></g></g><g fill="#2e3591" fill-opacity="1"><g transform="translate(213.412417, 159.152919)"><g><path d="M 53.875 -19.390625 C 61.457031 -19.390625 66.65625 -21.359375 69.46875 -25.296875 L 70.171875 -25.296875 L 70.4375 -4.84375 C 67.5625 -1.96875 62.210938 -0.0625 54.390625 0.875 C 52.273438 1.175781 49.644531 1.328125 46.5 1.328125 C 43.363281 1.328125 39.957031 0.738281 36.28125 -0.4375 C 32.601562 -1.613281 29.472656 -3.523438 26.890625 -6.171875 C 21.546875 -11.640625 18.875 -20.191406 18.875 -31.828125 L 18.875 -71.859375 L 5.546875 -71.859375 C 5.492188 -73.554688 5.46875 -75.289062 5.46875 -77.0625 L 5.46875 -90.640625 C 5.46875 -91.628906 5.492188 -92.125 5.546875 -92.125 L 18.875 -92.125 L 18.875 -117.265625 L 40.46875 -117.265625 L 40.46875 -92.125 L 64.71875 -92.125 L 64.71875 -71.859375 L 40.46875 -71.859375 L 40.46875 -35.890625 C 40.46875 -26.660156 43.023438 -21.398438 48.140625 -20.109375 C 49.785156 -19.628906 51.695312 -19.390625 53.875 -19.390625 Z M 53.875 -19.390625 "/></g></g></g><g fill="#2e3591" fill-opacity="1"><g transform="translate(288.777174, 159.152919)"><g><path d="M 10.140625 -118.40625 C 14.835938 -125.75 19.742188 -132.210938 24.859375 -137.796875 L 43.8125 -122.90625 C 41.289062 -119.789062 38.941406 -116.734375 36.765625 -113.734375 C 36.765625 -113.734375 34.5 -110.53125 29.96875 -104.125 Z M 33.328125 -9.875 C 33.328125 -4.820312 33.441406 -1.53125 33.671875 0 L 11.28125 0 L 11.28125 -92.125 L 33.328125 -92.125 Z M 33.328125 -9.875 "/></g></g></g><g fill="#2e3591" fill-opacity="1"><g transform="translate(333.996038, 159.152919)"><g><path d="M -0.359375 -92.125 L 24.59375 -92.125 L 46.109375 -31.46875 L 66.921875 -92.125 L 91.34375 -92.125 L 54.921875 0 L 36.765625 0 Z M -0.359375 -92.125 "/></g></g></g><g fill="#2e3591" fill-opacity="1"><g transform="translate(424.874469, 159.152919)"><g><path d="M 10.140625 -118.40625 C 14.835938 -125.75 19.742188 -132.210938 24.859375 -137.796875 L 43.8125 -122.90625 C 41.289062 -119.789062 38.941406 -116.734375 36.765625 -113.734375 C 36.765625 -113.734375 34.5 -110.53125 29.96875 -104.125 Z M 33.328125 -9.875 C 33.328125 -4.820312 33.441406 -1.53125 33.671875 0 L 11.28125 0 L 11.28125 -92.125 L 33.328125 -92.125 Z M 33.328125 -9.875 "/></g></g></g><g fill="#2e3591" fill-opacity="1"><g transform="translate(470.093334, 159.152919)"><g><path d="M 53.875 -19.390625 C 61.457031 -19.390625 66.65625 -21.359375 69.46875 -25.296875 L 70.171875 -25.296875 L 70.4375 -4.84375 C 67.5625 -1.96875 62.210938 -0.0625 54.390625 0.875 C 52.273438 1.175781 49.644531 1.328125 46.5 1.328125 C 43.363281 1.328125 39.957031 0.738281 36.28125 -0.4375 C 32.601562 -1.613281 29.472656 -3.523438 26.890625 -6.171875 C 21.546875 -11.640625 18.875 -20.191406 18.875 -31.828125 L 18.875 -71.859375 L 5.546875 -71.859375 C 5.492188 -73.554688 5.46875 -75.289062 5.46875 -77.0625 L 5.46875 -90.640625 C 5.46875 -91.628906 5.492188 -92.125 5.546875 -92.125 L 18.875 -92.125 L 18.875 -117.265625 L 40.46875 -117.265625 L 40.46875 -92.125 L 64.71875 -92.125 L 64.71875 -71.859375 L 40.46875 -71.859375 L 40.46875 -35.890625 C 40.46875 -26.660156 43.023438 -21.398438 48.140625 -20.109375 C 49.785156 -19.628906 51.695312 -19.390625 53.875 -19.390625 Z M 53.875 -19.390625 "/></g></g></g><g fill="#2e3591" fill-opacity="1"><g transform="translate(545.45809, 159.152919)"><g><path d="M 73.796875 -5.46875 C 65.453125 -0.9375 57.898438 1.328125 51.140625 1.328125 C 44.378906 1.328125 38.585938 0.695312 33.765625 -0.5625 C 28.941406 -1.832031 24.859375 -3.703125 21.515625 -6.171875 C 14.691406 -11.171875 11.28125 -18.398438 11.28125 -27.859375 C 11.28125 -36.328125 15.453125 -43.378906 23.796875 -49.015625 C 32.847656 -55.128906 45.132812 -58.1875 60.65625 -58.1875 L 64.1875 -58.09375 C 64.894531 -58.039062 65.6875 -58 66.5625 -57.96875 C 67.445312 -57.9375 68.238281 -57.863281 68.9375 -57.75 C 68.46875 -67.15625 64.414062 -72.648438 56.78125 -74.234375 C 54.25 -74.765625 51.554688 -75.03125 48.703125 -75.03125 C 45.859375 -75.03125 43.066406 -74.78125 40.328125 -74.28125 C 37.597656 -73.78125 34.941406 -73.117188 32.359375 -72.296875 C 26.648438 -70.472656 22.566406 -68.382812 20.109375 -66.03125 L 19.84375 -66.21875 L 17.1875 -85.703125 C 27.59375 -91.160156 38.96875 -93.890625 51.3125 -93.890625 C 70.46875 -93.890625 82.722656 -86.984375 88.078125 -73.171875 C 89.785156 -68.765625 90.640625 -63.800781 90.640625 -58.28125 L 90.640625 -26.359375 C 90.640625 -19.546875 93.046875 -14.90625 97.859375 -12.4375 L 81.90625 2.203125 C 78.550781 0.441406 75.847656 -2.113281 73.796875 -5.46875 Z M 69.03125 -41.875 C 67.445312 -42.164062 65.800781 -42.3125 64.09375 -42.3125 L 60.5625 -42.3125 C 47.570312 -42.3125 39.316406 -39.429688 35.796875 -33.671875 C 34.734375 -31.972656 34.203125 -30.179688 34.203125 -28.296875 C 34.203125 -26.421875 34.539062 -24.757812 35.21875 -23.3125 C 35.894531 -21.875 37.023438 -20.6875 38.609375 -19.75 C 41.671875 -17.988281 46.210938 -17.109375 52.234375 -17.109375 C 58.265625 -17.109375 63.894531 -18.546875 69.125 -21.421875 C 69.0625 -22.066406 69.03125 -22.742188 69.03125 -23.453125 Z M 69.03125 -41.875 "/></g></g></g><g fill="#2e3591" fill-opacity="1"><g transform="translate(650.616154, 159.152919)"><g><path d="M 9.609375 0 C 10.140625 -3.582031 10.40625 -6.753906 10.40625 -9.515625 C 10.40625 -12.285156 10.390625 -14.179688 10.359375 -15.203125 C 10.328125 -16.234375 10.28125 -17.25 10.21875 -18.25 C 10.164062 -19.25 10.109375 -20.191406 10.046875 -21.078125 L 9.78125 -23.28125 L 35.359375 -23.28125 C 35.179688 -21.039062 35.09375 -19.21875 35.09375 -17.8125 L 34.90625 -14.109375 C 34.90625 -12.992188 34.90625 -10.890625 34.90625 -7.796875 C 34.90625 -4.710938 35.054688 -2.113281 35.359375 0 Z M 9.609375 0 "/></g></g></g><g fill="#2e3591" fill-opacity="1"><g transform="translate(695.570553, 159.152919)"><g><path d="M 10.140625 -118.40625 C 14.835938 -125.75 19.742188 -132.210938 24.859375 -137.796875 L 43.8125 -122.90625 C 41.289062 -119.789062 38.941406 -116.734375 36.765625 -113.734375 C 36.765625 -113.734375 34.5 -110.53125 29.96875 -104.125 Z M 33.328125 -9.875 C 33.328125 -4.820312 33.441406 -1.53125 33.671875 0 L 11.28125 0 L 11.28125 -92.125 L 33.328125 -92.125 Z M 33.328125 -9.875 "/></g></g></g><g fill="#2e3591" fill-opacity="1"><g transform="translate(740.789418, 159.152919)"><g><path d="M 53.875 -19.390625 C 61.457031 -19.390625 66.65625 -21.359375 69.46875 -25.296875 L 70.171875 -25.296875 L 70.4375 -4.84375 C 67.5625 -1.96875 62.210938 -0.0625 54.390625 0.875 C 52.273438 1.175781 49.644531 1.328125 46.5 1.328125 C 43.363281 1.328125 39.957031 0.738281 36.28125 -0.4375 C 32.601562 -1.613281 29.472656 -3.523438 26.890625 -6.171875 C 21.546875 -11.640625 18.875 -20.191406 18.875 -31.828125 L 18.875 -71.859375 L 5.546875 -71.859375 C 5.492188 -73.554688 5.46875 -75.289062 5.46875 -77.0625 L 5.46875 -90.640625 C 5.46875 -91.628906 5.492188 -92.125 5.546875 -92.125 L 18.875 -92.125 L 18.875 -117.265625 L 40.46875 -117.265625 L 40.46875 -92.125 L 64.71875 -92.125 L 64.71875 -71.859375 L 40.46875 -71.859375 L 40.46875 -35.890625 C 40.46875 -26.660156 43.023438 -21.398438 48.140625 -20.109375 C 49.785156 -19.628906 51.695312 -19.390625 53.875 -19.390625 Z M 53.875 -19.390625 "/></g></g></g></g></g></svg>